<mxfile host="drawio-plugin" modified="2022-12-09T22:23:41.460Z" agent="5.0 (Windows NT 6.2; Win64; x64) AppleWebKit/537.36 (KHTML, like Gecko) Chrome/104.0.5112.102 Safari/537.36" etag="Y843nWBMQJEAcpdcS6FH" version="20.5.3" type="embed"><diagram id="23iRSUPoRavnBvh4doch" name="Test 1"><mxGraphModel dx="134" dy="1313" grid="1" gridSize="10" guides="1" tooltips="1" connect="1" arrows="1" fold="1" page="1" pageScale="1" pageWidth="827" pageHeight="1169" math="0" shadow="0"><root><mxCell id="0"/><mxCell id="1" parent="0"/><mxCell id="2" value="" style="ellipse;html=1;shape=startState;fillColor=#000000;strokeColor=#ff0000;" vertex="1" parent="1"><mxGeometry x="399" y="-890" width="30" height="30" as="geometry"/></mxCell><mxCell id="3" value="" style="edgeStyle=orthogonalEdgeStyle;html=1;verticalAlign=bottom;endArrow=open;endSize=8;strokeColor=#ff0000;rounded=0;" edge="1" source="2" parent="1"><mxGeometry relative="1" as="geometry"><mxPoint x="414" y="-800" as="targetPoint"/></mxGeometry></mxCell><mxCell id="9" style="edgeStyle=orthogonalEdgeStyle;rounded=0;orthogonalLoop=1;jettySize=auto;html=1;" edge="1" parent="1" source="4"><mxGeometry relative="1" as="geometry"><mxPoint x="359" y="-690" as="targetPoint"/></mxGeometry></mxCell><mxCell id="4" value="Prepare System" style="html=1;" vertex="1" parent="1"><mxGeometry x="359" y="-800" width="110" height="50" as="geometry"/></mxCell><mxCell id="7" value="Will run together" style="endArrow=none;html=1;endSize=12;startArrow=none;startSize=14;startFill=0;align=center;verticalAlign=bottom;endFill=0;rounded=0;edgeStyle=orthogonalEdgeStyle;" edge="1" parent="1"><mxGeometry y="3" relative="1" as="geometry"><mxPoint x="334" y="-690" as="sourcePoint"/><mxPoint x="494" y="-690" as="targetPoint"/></mxGeometry></mxCell><mxCell id="10" value="Check Network" style="html=1;" vertex="1" parent="1"><mxGeometry x="390" y="-624" width="110" height="50" as="geometry"/></mxCell><mxCell id="11" value="Run Doctor" style="html=1;" vertex="1" parent="1"><mxGeometry x="250" y="-624" width="110" height="50" as="geometry"/></mxCell><mxCell id="13" value="" style="endArrow=classic;html=1;rounded=0;entryX=0.5;entryY=0;entryDx=0;entryDy=0;" edge="1" parent="1" target="11"><mxGeometry width="50" height="50" relative="1" as="geometry"><mxPoint x="370" y="-690" as="sourcePoint"/><mxPoint x="410" y="-690" as="targetPoint"/><Array as="points"><mxPoint x="370" y="-670"/><mxPoint x="305" y="-670"/></Array></mxGeometry></mxCell><mxCell id="14" value="" style="endArrow=classic;html=1;rounded=0;entryX=0.516;entryY=-0.003;entryDx=0;entryDy=0;entryPerimeter=0;" edge="1" parent="1" target="10"><mxGeometry width="50" height="50" relative="1" as="geometry"><mxPoint x="446" y="-690" as="sourcePoint"/><mxPoint x="381" y="-624" as="targetPoint"/><Array as="points"><mxPoint x="446" y="-670"/></Array></mxGeometry></mxCell></root></mxGraphModel></diagram></mxfile>